# xmcd CD database file
#
# Track frame offsets:
#	150
#	9209
#	18808
#	30843
#	42108
#	53985
#	66197
#	77741
#	86028
#	96743
#	101449
#	111760
#	120373
#	130715
#	137462
#	145941
#	155227
#	162881
#	169052
#	175125
#	181802
#	187533
#	194273
#	198869
#	203279
#	215937
#	222140
#	230282
#	241871
#	245095
#
# Disc length: 3385 seconds
#
# Revision: 0
# Processed by: cddbd v1.5.2PL0 Copyright (c) Steve Scherf et al.
# Submitted via: CDex 1.70beta2
#
DISCID=860d371e
DTITLE=Various Artist - Salsa Brava - 30 Pegaditas
DYEAR=2006
DGENRE=Salsa
TTITLE0=Sobre Las Olas
TTITLE1=Talento En Televisión
TTITLE2=Oiga, Mira, Vea
TTITLE3=Hombre De Hierro
TTITLE4=Dime Que Pasó
TTITLE5=Juanito Alimaña
TTITLE6=La Juma De Ayer
TTITLE7=Cali Pachanguero
TTITLE8=Rebelión
TTITLE9=Los Charcos
TTITLE10=El Ausente
TTITLE11=El Palillero
TTITLE12=Tania
TTITLE13=El Caminante
TTITLE14=Echa Pa'lante
TTITLE15=Lágrimas
TTITLE16=La Noche
TTITLE17=La Murga
TTITLE18=Anacohola
TTITLE19=Canción Sonom
TTITLE20=Un Verano En New York
TTITLE21=Está Pegao
TTITLE22=Sonido Bestial
TTITLE23=Jala Jala
TTITLE24=Periódico De Ayer
TTITLE25=El Preso
TTITLE26=Manyoma
TTITLE27=Idilio
TTITLE28=Cali Ají
TTITLE29=El Cocinero Mayor
EXTD=YEAR: 2006
EXTT0=
EXTT1=
EXTT2=
EXTT3=
EXTT4=
EXTT5=
EXTT6=
EXTT7=
EXTT8=
EXTT9=
EXTT10=
EXTT11=
EXTT12=
EXTT13=
EXTT14=
EXTT15=
EXTT16=
EXTT17=
EXTT18=
EXTT19=
EXTT20=
EXTT21=
EXTT22=
EXTT23=
EXTT24=
EXTT25=
EXTT26=
EXTT27=
EXTT28=
EXTT29=
PLAYORDER=
